<svg width="128" height="128" viewBox="0 0 128 128" fill="none" xmlns="http://www.w3.org/2000/svg">
<rect width="128" height="128" rx="26" fill="#222222"/>
<path d="M26.884 85.82C25.1773 85.82 23.812 85.308 22.788 84.284C21.8067 83.26 21.316 81.9373 21.316 80.316C21.316 78.7373 21.8067 77.4573 22.788 76.476C23.812 75.452 25.1773 74.94 26.884 74.94C28.5907 74.94 29.9133 75.452 30.852 76.476C31.8333 77.4573 32.324 78.7373 32.324 80.316C32.324 81.9373 31.8333 83.26 30.852 84.284C29.9133 85.308 28.5907 85.82 26.884 85.82Z" fill="#2B66DD"/>
<path d="M41.683 86.076C40.1043 86.076 38.8883 85.6493 38.035 84.796C37.2243 83.9427 36.819 82.7267 36.819 81.148V61.308H34.515C33.3203 61.308 32.3817 60.988 31.699 60.348C31.059 59.708 30.739 58.8333 30.739 57.724C30.739 56.5293 31.059 55.6333 31.699 55.036C32.3817 54.396 33.3203 54.076 34.515 54.076H39.635L36.819 56.636V54.652C36.819 50.0867 37.9497 46.6733 40.211 44.412C42.515 42.1507 45.8857 40.7853 50.323 40.316L52.371 40.124C53.4803 40.0387 54.355 40.2093 54.995 40.636C55.6777 41.0627 56.1257 41.6173 56.339 42.3C56.5523 42.9827 56.595 43.6867 56.467 44.412C56.339 45.0947 56.0403 45.7133 55.571 46.268C55.1443 46.78 54.547 47.0573 53.779 47.1L52.883 47.164C50.579 47.3347 48.9363 47.8893 47.955 48.828C46.9737 49.724 46.483 51.1107 46.483 52.988V55.164L45.267 54.076H51.027C52.2643 54.076 53.203 54.396 53.843 55.036C54.483 55.6333 54.803 56.5293 54.803 57.724C54.803 58.8333 54.483 59.708 53.843 60.348C53.203 60.988 52.2643 61.308 51.027 61.308H46.483V81.148C46.483 84.4333 44.883 86.076 41.683 86.076Z" fill="#FEFEFE"/>
<path d="M60.6165 86.076C59.0378 86.076 57.8218 85.6493 56.9685 84.796C56.1578 83.9427 55.7525 82.7267 55.7525 81.148V58.428C55.7525 56.8493 56.1578 55.6547 56.9685 54.844C57.8218 53.9907 58.9952 53.564 60.4885 53.564C62.0245 53.564 63.1978 53.9907 64.0085 54.844C64.8192 55.6547 65.2245 56.8493 65.2245 58.428V62.524L64.5205 59.964C65.3738 58.0013 66.6965 56.4227 68.4885 55.228C70.2805 54.0333 72.3925 53.436 74.8245 53.436C77.2565 53.436 79.2832 54.012 80.9045 55.164C82.5258 56.316 83.6778 58.0867 84.3605 60.476H83.4645C84.4032 58.3 85.8325 56.5933 87.7525 55.356C89.7152 54.076 91.9552 53.436 94.4725 53.436C96.9045 53.436 98.8885 53.9267 100.424 54.908C102.003 55.8467 103.176 57.2973 103.944 59.26C104.713 61.18 105.097 63.6333 105.097 66.62V81.148C105.097 82.7267 104.67 83.9427 103.817 84.796C103.006 85.6493 101.833 86.076 100.297 86.076C98.7178 86.076 97.5018 85.6493 96.6485 84.796C95.8378 83.9427 95.4325 82.7267 95.4325 81.148V66.94C95.4325 64.8493 95.0912 63.3347 94.4085 62.396C93.7685 61.4147 92.6592 60.924 91.0805 60.924C89.2458 60.924 87.8165 61.564 86.7925 62.844C85.7685 64.124 85.2565 65.9373 85.2565 68.284V81.148C85.2565 82.7267 84.8298 83.9427 83.9765 84.796C83.1658 85.6493 81.9925 86.076 80.4565 86.076C78.9205 86.076 77.7258 85.6493 76.8725 84.796C76.0192 83.9427 75.5925 82.7267 75.5925 81.148V66.94C75.5925 64.8493 75.2512 63.3347 74.5685 62.396C73.9285 61.4147 72.8192 60.924 71.2405 60.924C69.4058 60.924 67.9765 61.564 66.9525 62.844C65.9285 64.124 65.4165 65.9373 65.4165 68.284V81.148C65.4165 84.4333 63.8165 86.076 60.6165 86.076Z" fill="#858585"/>
</svg>
