<svg width="292" height="49" viewBox="0 0 292 49" fill="none" xmlns="http://www.w3.org/2000/svg">
<path d="M6.384 47.82C4.67733 47.82 3.312 47.308 2.288 46.284C1.30667 45.26 0.816 43.9373 0.816 42.316C0.816 40.7373 1.30667 39.4573 2.288 38.476C3.312 37.452 4.67733 36.94 6.384 36.94C8.09067 36.94 9.41333 37.452 10.352 38.476C11.3333 39.4573 11.824 40.7373 11.824 42.316C11.824 43.9373 11.3333 45.26 10.352 46.284C9.41333 47.308 8.09067 47.82 6.384 47.82Z" fill="#2B66DD"/>
<path d="M21.183 48.076C19.6043 48.076 18.3883 47.6493 17.535 46.796C16.7243 45.9427 16.319 44.7267 16.319 43.148V23.308H14.015C12.8203 23.308 11.8817 22.988 11.199 22.348C10.559 21.708 10.239 20.8333 10.239 19.724C10.239 18.5293 10.559 17.6333 11.199 17.036C11.8817 16.396 12.8203 16.076 14.015 16.076H19.135L16.319 18.636V16.652C16.319 12.0867 17.4497 8.67333 19.711 6.412C22.015 4.15066 25.3857 2.78533 29.823 2.316L31.871 2.124C32.9803 2.03866 33.855 2.20933 34.495 2.636C35.1777 3.06266 35.6257 3.61733 35.839 4.3C36.0523 4.98266 36.095 5.68666 35.967 6.412C35.839 7.09466 35.5403 7.71333 35.071 8.268C34.6443 8.78 34.047 9.05733 33.279 9.1L32.383 9.164C30.079 9.33466 28.4363 9.88933 27.455 10.828C26.4737 11.724 25.983 13.1107 25.983 14.988V17.164L24.767 16.076H30.527C31.7643 16.076 32.703 16.396 33.343 17.036C33.983 17.6333 34.303 18.5293 34.303 19.724C34.303 20.8333 33.983 21.708 33.343 22.348C32.703 22.988 31.7643 23.308 30.527 23.308H25.983V43.148C25.983 46.4333 24.383 48.076 21.183 48.076ZM49.663 48.204C45.8657 48.204 43.0283 47.1587 41.151 45.068C39.2737 42.9347 38.335 39.7773 38.335 35.596V6.732C38.335 5.11067 38.7403 3.89467 39.551 3.084C40.4043 2.23066 41.6203 1.804 43.199 1.804C44.735 1.804 45.9083 2.23066 46.719 3.084C47.5723 3.89467 47.999 5.11067 47.999 6.732V35.212C47.999 36.9613 48.3617 38.2627 49.087 39.116C49.855 39.9267 50.8577 40.332 52.095 40.332C52.4363 40.332 52.7563 40.3107 53.055 40.268C53.3537 40.2253 53.6737 40.204 54.015 40.204C54.6977 40.1187 55.167 40.332 55.423 40.844C55.7217 41.3133 55.871 42.2733 55.871 43.724C55.871 45.004 55.615 45.9853 55.103 46.668C54.591 47.308 53.8017 47.7347 52.735 47.948C52.3083 47.9907 51.8177 48.0333 51.263 48.076C50.7083 48.1613 50.175 48.204 49.663 48.204ZM68.0835 48.204C65.4382 48.204 63.2408 47.7133 61.4915 46.732C59.7422 45.7507 58.4408 44.2787 57.5875 42.316C56.7768 40.3107 56.3715 37.836 56.3715 34.892V20.428C56.3715 18.8067 56.7768 17.5907 57.5875 16.78C58.4408 15.9693 59.6355 15.564 61.1715 15.564C62.7075 15.564 63.9022 15.9693 64.7555 16.78C65.6088 17.5907 66.0355 18.8067 66.0355 20.428V35.148C66.0355 37.0253 66.4195 38.4333 67.1875 39.372C67.9555 40.268 69.1715 40.716 70.8355 40.716C72.6702 40.716 74.1635 40.076 75.3155 38.796C76.5102 37.4733 77.1075 35.7453 77.1075 33.612V20.428C77.1075 18.8067 77.5128 17.5907 78.3235 16.78C79.1768 15.9693 80.3715 15.564 81.9075 15.564C83.4862 15.564 84.6808 15.9693 85.4915 16.78C86.3448 17.5907 86.7715 18.8067 86.7715 20.428V43.148C86.7715 46.4333 85.2142 48.076 82.0995 48.076C80.5635 48.076 79.3902 47.6493 78.5795 46.796C77.7688 45.9427 77.3635 44.7267 77.3635 43.148V38.86L78.3235 41.356C77.3848 43.532 76.0408 45.2173 74.2915 46.412C72.5422 47.6067 70.4728 48.204 68.0835 48.204ZM94.3775 47.948C93.1828 47.948 92.2228 47.628 91.4975 46.988C90.7722 46.3053 90.3882 45.452 90.3455 44.428C90.3455 43.404 90.7722 42.3587 91.6255 41.292L101.546 29.132V33.484L92.3295 22.22C91.4335 21.1107 91.0068 20.044 91.0495 19.02C91.0922 17.996 91.4762 17.164 92.2015 16.524C92.9268 15.884 93.8868 15.564 95.0815 15.564C96.2335 15.564 97.1935 15.756 97.9615 16.14C98.7295 16.524 99.4548 17.164 100.138 18.06L106.986 26.828H103.594L110.442 18.06C111.167 17.164 111.914 16.524 112.682 16.14C113.45 15.756 114.388 15.564 115.498 15.564C116.692 15.564 117.652 15.9053 118.378 16.588C119.103 17.228 119.466 18.06 119.466 19.084C119.508 20.108 119.082 21.1533 118.186 22.22L108.97 33.484V29.132L118.954 41.292C119.85 42.316 120.276 43.34 120.234 44.364C120.191 45.388 119.786 46.2413 119.018 46.924C118.292 47.6067 117.332 47.948 116.138 47.948C114.986 47.948 114.026 47.756 113.258 47.372C112.532 46.9453 111.807 46.3053 111.082 45.452L103.594 35.916H106.858L99.3695 45.452C98.6868 46.2627 97.9615 46.8813 97.1935 47.308C96.4682 47.7347 95.5295 47.948 94.3775 47.948Z" fill="#222222"/>
<path d="M137.828 48.204C134.458 48.204 131.514 47.5427 128.996 46.22C126.522 44.8973 124.602 42.9987 123.236 40.524C121.871 38.0493 121.188 35.1267 121.188 31.756C121.188 29.2387 121.572 26.9773 122.34 24.972C123.108 22.9667 124.218 21.26 125.668 19.852C127.162 18.4013 128.932 17.3133 130.98 16.588C133.028 15.82 135.311 15.436 137.828 15.436C141.199 15.436 144.122 16.0973 146.596 17.42C149.114 18.7427 151.055 20.62 152.42 23.052C153.828 25.484 154.532 28.3853 154.532 31.756C154.532 34.316 154.127 36.5987 153.316 38.604C152.548 40.6093 151.439 42.3373 149.988 43.788C148.538 45.2387 146.767 46.348 144.676 47.116C142.628 47.8413 140.346 48.204 137.828 48.204ZM137.828 40.972C139.236 40.972 140.452 40.6307 141.476 39.948C142.5 39.2653 143.311 38.2627 143.908 36.94C144.506 35.5747 144.804 33.8467 144.804 31.756C144.804 28.6413 144.164 26.3587 142.884 24.908C141.604 23.4147 139.919 22.668 137.828 22.668C136.463 22.668 135.247 22.988 134.18 23.628C133.156 24.268 132.346 25.2707 131.748 26.636C131.194 27.9587 130.916 29.6653 130.916 31.756C130.916 34.8707 131.556 37.196 132.836 38.732C134.116 40.2253 135.78 40.972 137.828 40.972ZM162.204 48.076C160.625 48.076 159.409 47.6493 158.556 46.796C157.745 45.9427 157.34 44.7267 157.34 43.148V20.428C157.34 18.8493 157.745 17.6547 158.556 16.844C159.409 15.9907 160.583 15.564 162.076 15.564C163.612 15.564 164.785 15.9907 165.596 16.844C166.407 17.6547 166.812 18.8493 166.812 20.428V24.524L166.108 21.964C166.961 20.0013 168.284 18.4227 170.076 17.228C171.868 16.0333 173.98 15.436 176.412 15.436C178.844 15.436 180.871 16.012 182.492 17.164C184.113 18.316 185.265 20.0867 185.948 22.476H185.052C185.991 20.3 187.42 18.5933 189.34 17.356C191.303 16.076 193.543 15.436 196.06 15.436C198.492 15.436 200.476 15.9267 202.012 16.908C203.591 17.8467 204.764 19.2973 205.532 21.26C206.3 23.18 206.684 25.6333 206.684 28.62V43.148C206.684 44.7267 206.257 45.9427 205.404 46.796C204.593 47.6493 203.42 48.076 201.884 48.076C200.305 48.076 199.089 47.6493 198.236 46.796C197.425 45.9427 197.02 44.7267 197.02 43.148V28.94C197.02 26.8493 196.679 25.3347 195.996 24.396C195.356 23.4147 194.247 22.924 192.668 22.924C190.833 22.924 189.404 23.564 188.38 24.844C187.356 26.124 186.844 27.9373 186.844 30.284V43.148C186.844 44.7267 186.417 45.9427 185.564 46.796C184.753 47.6493 183.58 48.076 182.044 48.076C180.508 48.076 179.313 47.6493 178.46 46.796C177.607 45.9427 177.18 44.7267 177.18 43.148V28.94C177.18 26.8493 176.839 25.3347 176.156 24.396C175.516 23.4147 174.407 22.924 172.828 22.924C170.993 22.924 169.564 23.564 168.54 24.844C167.516 26.124 167.004 27.9373 167.004 30.284V43.148C167.004 46.4333 165.404 48.076 162.204 48.076ZM215.751 48.012C214.172 48.012 212.956 47.564 212.103 46.668C211.292 45.7293 210.887 44.428 210.887 42.764V20.876C210.887 19.1693 211.292 17.868 212.103 16.972C212.956 16.0333 214.172 15.564 215.751 15.564C217.287 15.564 218.46 16.0333 219.271 16.972C220.124 17.868 220.551 19.1693 220.551 20.876V42.764C220.551 44.428 220.146 45.7293 219.335 46.668C218.524 47.564 217.33 48.012 215.751 48.012ZM215.751 10.316C213.959 10.316 212.572 9.91066 211.591 9.1C210.652 8.24667 210.183 7.052 210.183 5.516C210.183 3.93733 210.652 2.74267 211.591 1.932C212.572 1.07866 213.959 0.651997 215.751 0.651997C217.543 0.651997 218.908 1.07866 219.847 1.932C220.786 2.74267 221.255 3.93733 221.255 5.516C221.255 7.052 220.786 8.24667 219.847 9.1C218.908 9.91066 217.543 10.316 215.751 10.316ZM229.676 48.076C228.097 48.076 226.881 47.6493 226.028 46.796C225.217 45.9427 224.812 44.7267 224.812 43.148V20.428C224.812 18.8493 225.217 17.6547 226.028 16.844C226.881 15.9907 228.055 15.564 229.548 15.564C231.084 15.564 232.257 15.9907 233.068 16.844C233.879 17.6547 234.284 18.8493 234.284 20.428V24.076L233.58 21.964C234.561 19.8733 236.012 18.2733 237.932 17.164C239.895 16.012 242.113 15.436 244.588 15.436C247.105 15.436 249.175 15.9267 250.796 16.908C252.417 17.8467 253.633 19.2973 254.444 21.26C255.255 23.18 255.66 25.6333 255.66 28.62V43.148C255.66 44.7267 255.233 45.9427 254.38 46.796C253.569 47.6493 252.375 48.076 250.796 48.076C249.26 48.076 248.065 47.6493 247.212 46.796C246.401 45.9427 245.996 44.7267 245.996 43.148V29.068C245.996 26.892 245.591 25.3347 244.78 24.396C244.012 23.4147 242.817 22.924 241.196 22.924C239.148 22.924 237.505 23.564 236.268 24.844C235.073 26.124 234.476 27.8307 234.476 29.964V43.148C234.476 46.4333 232.876 48.076 229.676 48.076ZM271.898 48.204C269.168 48.204 266.757 47.5427 264.666 46.22C262.618 44.8973 261.018 42.9987 259.866 40.524C258.714 38.0493 258.138 35.1267 258.138 31.756C258.138 28.3853 258.714 25.484 259.866 23.052C261.018 20.62 262.618 18.7427 264.666 17.42C266.757 16.0973 269.168 15.436 271.898 15.436C274.373 15.436 276.549 16.0333 278.426 17.228C280.346 18.4227 281.648 19.98 282.33 21.9H281.626V6.732C281.626 5.11067 282.032 3.89467 282.842 3.084C283.653 2.23066 284.848 1.804 286.426 1.804C287.962 1.804 289.157 2.23066 290.01 3.084C290.864 3.89467 291.29 5.11067 291.29 6.732V43.148C291.29 44.7267 290.864 45.9427 290.01 46.796C289.2 47.6493 288.026 48.076 286.49 48.076C284.954 48.076 283.76 47.6493 282.906 46.796C282.096 45.9427 281.69 44.7267 281.69 43.148V38.796L282.394 41.292C281.797 43.3827 280.517 45.068 278.554 46.348C276.634 47.5853 274.416 48.204 271.898 48.204ZM274.778 40.972C276.186 40.972 277.402 40.6307 278.426 39.948C279.45 39.2653 280.261 38.2627 280.858 36.94C281.456 35.5747 281.754 33.8467 281.754 31.756C281.754 28.6413 281.114 26.3587 279.834 24.908C278.554 23.4147 276.869 22.668 274.778 22.668C273.413 22.668 272.197 22.988 271.13 23.628C270.106 24.268 269.296 25.2707 268.698 26.636C268.144 27.9587 267.866 29.6653 267.866 31.756C267.866 34.8707 268.506 37.196 269.786 38.732C271.066 40.2253 272.73 40.972 274.778 40.972Z" fill="#8C8C8C"/>
</svg>
