<svg width="85" height="47" viewBox="0 0 85 47" fill="none" xmlns="http://www.w3.org/2000/svg">
<path d="M5.884 45.82C4.17733 45.82 2.812 45.308 1.788 44.284C0.806667 43.26 0.316 41.9373 0.316 40.316C0.316 38.7373 0.806667 37.4573 1.788 36.476C2.812 35.452 4.17733 34.94 5.884 34.94C7.59067 34.94 8.91333 35.452 9.852 36.476C10.8333 37.4573 11.324 38.7373 11.324 40.316C11.324 41.9373 10.8333 43.26 9.852 44.284C8.91333 45.308 7.59067 45.82 5.884 45.82Z" fill="#2B66DD"/>
<path d="M20.683 46.076C19.1043 46.076 17.8883 45.6493 17.035 44.796C16.2243 43.9427 15.819 42.7267 15.819 41.148V21.308H13.515C12.3203 21.308 11.3817 20.988 10.699 20.348C10.059 19.708 9.739 18.8333 9.739 17.724C9.739 16.5293 10.059 15.6333 10.699 15.036C11.3817 14.396 12.3203 14.076 13.515 14.076H18.635L15.819 16.636V14.652C15.819 10.0867 16.9497 6.67333 19.211 4.412C21.515 2.15066 24.8857 0.78533 29.323 0.315998L31.371 0.123997C32.4803 0.0386645 33.355 0.209332 33.995 0.635998C34.6777 1.06266 35.1257 1.61733 35.339 2.3C35.5523 2.98266 35.595 3.68666 35.467 4.412C35.339 5.09466 35.0403 5.71333 34.571 6.268C34.1443 6.78 33.547 7.05733 32.779 7.1L31.883 7.164C29.579 7.33466 27.9363 7.88933 26.955 8.828C25.9737 9.724 25.483 11.1107 25.483 12.988V15.164L24.267 14.076H30.027C31.2643 14.076 32.203 14.396 32.843 15.036C33.483 15.6333 33.803 16.5293 33.803 17.724C33.803 18.8333 33.483 19.708 32.843 20.348C32.203 20.988 31.2643 21.308 30.027 21.308H25.483V41.148C25.483 44.4333 23.883 46.076 20.683 46.076Z" fill="#FEFEFE"/>
<path d="M39.6165 46.076C38.0378 46.076 36.8218 45.6493 35.9685 44.796C35.1578 43.9427 34.7525 42.7267 34.7525 41.148V18.428C34.7525 16.8493 35.1578 15.6547 35.9685 14.844C36.8218 13.9907 37.9952 13.564 39.4885 13.564C41.0245 13.564 42.1978 13.9907 43.0085 14.844C43.8192 15.6547 44.2245 16.8493 44.2245 18.428V22.524L43.5205 19.964C44.3738 18.0013 45.6965 16.4227 47.4885 15.228C49.2805 14.0333 51.3925 13.436 53.8245 13.436C56.2565 13.436 58.2832 14.012 59.9045 15.164C61.5258 16.316 62.6778 18.0867 63.3605 20.476H62.4645C63.4032 18.3 64.8325 16.5933 66.7525 15.356C68.7152 14.076 70.9552 13.436 73.4725 13.436C75.9045 13.436 77.8885 13.9267 79.4245 14.908C81.0032 15.8467 82.1765 17.2973 82.9445 19.26C83.7125 21.18 84.0965 23.6333 84.0965 26.62V41.148C84.0965 42.7267 83.6698 43.9427 82.8165 44.796C82.0058 45.6493 80.8325 46.076 79.2965 46.076C77.7178 46.076 76.5018 45.6493 75.6485 44.796C74.8378 43.9427 74.4325 42.7267 74.4325 41.148V26.94C74.4325 24.8493 74.0912 23.3347 73.4085 22.396C72.7685 21.4147 71.6592 20.924 70.0805 20.924C68.2458 20.924 66.8165 21.564 65.7925 22.844C64.7685 24.124 64.2565 25.9373 64.2565 28.284V41.148C64.2565 42.7267 63.8298 43.9427 62.9765 44.796C62.1658 45.6493 60.9925 46.076 59.4565 46.076C57.9205 46.076 56.7258 45.6493 55.8725 44.796C55.0192 43.9427 54.5925 42.7267 54.5925 41.148V26.94C54.5925 24.8493 54.2512 23.3347 53.5685 22.396C52.9285 21.4147 51.8192 20.924 50.2405 20.924C48.4058 20.924 46.9765 21.564 45.9525 22.844C44.9285 24.124 44.4165 25.9373 44.4165 28.284V41.148C44.4165 44.4333 42.8165 46.076 39.6165 46.076Z" fill="#858585"/>
</svg>
